# xmcd
#
# Track frame offsets: 
#        150
#        20351
#        35108
#        56252
#        80165
#        109414
#        128632
#        149439
#        171416
#        194612
#        215997
#        235762
#        256032
#        270566
#        290787
#        309260
#
# Disc length: 4367 seconds
#
# Revision: 0
# Processed by: cddbd v1.5.2PL0 Copyright (c) Steve Scherf et al.
# Submitted via: ExactAudioCopy v0.99pb4
#
DISCID=f6110d10
DTITLE=The Jeff Healey Band - Legacy, Vol. 1 - Disc 1
DYEAR=2009
DGENRE=Blues
TTITLE0=See the Light
TTITLE1=Confidence Man
TTITLE2=Angel Eyes
TTITLE3=While My Guitar Gently Weeps [New Mix]
TTITLE4=I Think I Love You Too Much [New Mix]
TTITLE5=Full Circle
TTITLE6=Cruel Little Number
TTITLE7=Heart of an Angel
TTITLE8=Lost in Your Eyes
TTITLE9=It Could All Get Blown Away
TTITLE10=Leave the Light On
TTITLE11=You're Coming Home
TTITLE12=I Got a Line on You
TTITLE13=Angel
TTITLE14=Stuck in the Middle with You
TTITLE15=I Tried
EXTD=
EXTT0=
EXTT1=
EXTT2=
EXTT3=
EXTT4=
EXTT5=
EXTT6=
EXTT7=
EXTT8=
EXTT9=
EXTT10=
EXTT11=
EXTT12=
EXTT13=
EXTT14=
EXTT15=
PLAYORDER=
